<svg xmlns="http://www.w3.org/2000/svg" viewBox="0 0 1200 900" font-family="Inter, system-ui, -apple-system, sans-serif">
  <defs>
    <linearGradient id="bgGrad" x1="0" y1="0" x2="1" y2="1">
      <stop offset="0%" stop-color="#030712"/>
      <stop offset="100%" stop-color="#0a0f1e"/>
    </linearGradient>
    <linearGradient id="violetGrad" x1="0" y1="0" x2="1" y2="1">
      <stop offset="0%" stop-color="#7c3aed"/>
      <stop offset="100%" stop-color="#06b6d4"/>
    </linearGradient>
    <linearGradient id="emeraldGrad" x1="0" y1="0" x2="1" y2="0">
      <stop offset="0%" stop-color="#059669"/>
      <stop offset="100%" stop-color="#10b981"/>
    </linearGradient>
    <linearGradient id="amberGrad" x1="0" y1="0" x2="1" y2="0">
      <stop offset="0%" stop-color="#d97706"/>
      <stop offset="100%" stop-color="#f59e0b"/>
    </linearGradient>
    <linearGradient id="cyanGrad" x1="0" y1="0" x2="1" y2="0">
      <stop offset="0%" stop-color="#0891b2"/>
      <stop offset="100%" stop-color="#06b6d4"/>
    </linearGradient>
    <linearGradient id="purpleGrad" x1="0" y1="0" x2="1" y2="0">
      <stop offset="0%" stop-color="#7c3aed"/>
      <stop offset="100%" stop-color="#a78bfa"/>
    </linearGradient>
    <linearGradient id="blueGrad" x1="0" y1="0" x2="1" y2="0">
      <stop offset="0%" stop-color="#2563eb"/>
      <stop offset="100%" stop-color="#3b82f6"/>
    </linearGradient>
    <linearGradient id="redGrad" x1="0" y1="0" x2="1" y2="0">
      <stop offset="0%" stop-color="#dc2626"/>
      <stop offset="100%" stop-color="#ef4444"/>
    </linearGradient>
    <filter id="glow">
      <feGaussianBlur stdDeviation="3" result="blur"/>
      <feMerge><feMergeNode in="blur"/><feMergeNode in="SourceGraphic"/></feMerge>
    </filter>
    <filter id="shadow">
      <feDropShadow dx="0" dy="2" stdDeviation="4" flood-color="#000" flood-opacity="0.5"/>
    </filter>
  </defs>

  <!-- Background -->
  <rect width="1200" height="900" fill="url(#bgGrad)"/>
  <!-- Grid dots -->
  <pattern id="dots" x="0" y="0" width="30" height="30" patternUnits="userSpaceOnUse">
    <circle cx="15" cy="15" r="0.5" fill="rgba(255,255,255,0.05)"/>
  </pattern>
  <rect width="1200" height="900" fill="url(#dots)"/>

  <!-- Title -->
  <text x="600" y="42" text-anchor="middle" font-size="24" font-weight="800" fill="url(#violetGrad)">FundFlow AI</text>
  <text x="600" y="62" text-anchor="middle" font-size="12" fill="#6b7280">Autonomous On-Chain Grant Allocator — System Architecture</text>

  <!-- ═══════════════════════════════════════════════ -->
  <!-- LAYER 1: FRONTEND (top) -->
  <!-- ═══════════════════════════════════════════════ -->
  <rect x="40" y="80" width="1120" height="70" rx="12" fill="rgba(139,92,246,0.08)" stroke="rgba(139,92,246,0.3)" stroke-width="1" filter="url(#shadow)"/>
  <text x="60" y="102" font-size="11" font-weight="700" fill="#a78bfa">FRONTEND</text>
  <text x="160" y="102" font-size="10" fill="#6b7280">Next.js 16 + React 19 + Tailwind CSS 4 + Framer Motion</text>

  <!-- Frontend boxes -->
  <g transform="translate(60,112)">
    <rect width="130" height="28" rx="6" fill="rgba(255,255,255,0.05)" stroke="rgba(255,255,255,0.1)"/>
    <text x="65" y="18" text-anchor="middle" font-size="9" fill="#d1d5db">Dashboard + Tour</text>
  </g>
  <g transform="translate(200,112)">
    <rect width="130" height="28" rx="6" fill="rgba(255,255,255,0.05)" stroke="rgba(255,255,255,0.1)"/>
    <text x="65" y="18" text-anchor="middle" font-size="9" fill="#d1d5db">Proposals + SSE</text>
  </g>
  <g transform="translate(340,112)">
    <rect width="130" height="28" rx="6" fill="rgba(255,255,255,0.05)" stroke="rgba(255,255,255,0.1)"/>
    <text x="65" y="18" text-anchor="middle" font-size="9" fill="#d1d5db">Treasury Banking</text>
  </g>
  <g transform="translate(480,112)">
    <rect width="130" height="28" rx="6" fill="rgba(255,255,255,0.05)" stroke="rgba(255,255,255,0.1)"/>
    <text x="65" y="18" text-anchor="middle" font-size="9" fill="#d1d5db">Founders + Profiles</text>
  </g>
  <g transform="translate(620,112)">
    <rect width="130" height="28" rx="6" fill="rgba(255,255,255,0.05)" stroke="rgba(255,255,255,0.1)"/>
    <text x="65" y="18" text-anchor="middle" font-size="9" fill="#d1d5db">Audit Trail</text>
  </g>
  <g transform="translate(760,112)">
    <rect width="130" height="28" rx="6" fill="rgba(255,255,255,0.05)" stroke="rgba(255,255,255,0.1)"/>
    <text x="65" y="18" text-anchor="middle" font-size="9" fill="#d1d5db">Agent Workflow</text>
  </g>
  <g transform="translate(900,112)">
    <rect width="130" height="28" rx="6" fill="rgba(255,255,255,0.05)" stroke="rgba(255,255,255,0.1)"/>
    <text x="65" y="18" text-anchor="middle" font-size="9" fill="#d1d5db">Sponsor Showcase</text>
  </g>

  <!-- Arrow down -->
  <line x1="600" y1="150" x2="600" y2="175" stroke="#4b5563" stroke-width="1.5" marker-end="url(#arrowGray)"/>
  <defs><marker id="arrowGray" viewBox="0 0 10 10" refX="5" refY="5" markerWidth="6" markerHeight="6" orient="auto"><path d="M 0 0 L 10 5 L 0 10 z" fill="#4b5563"/></marker></defs>

  <!-- ═══════════════════════════════════════════════ -->
  <!-- LAYER 2: STEP 1 - HUMAN PASSPORT -->
  <!-- ═══════════════════════════════════════════════ -->
  <rect x="40" y="178" width="340" height="80" rx="12" fill="rgba(34,197,94,0.06)" stroke="rgba(34,197,94,0.3)" stroke-width="1" filter="url(#shadow)"/>
  <text x="60" y="200" font-size="11" font-weight="700" fill="#4ade80">STEP 1: SYBIL CHECK</text>
  <rect x="55" y="210" width="110" height="20" rx="4" fill="rgba(34,197,94,0.15)"/>
  <text x="110" y="224" text-anchor="middle" font-size="9" font-weight="600" fill="#22c55e">human.tech</text>
  <text x="60" y="248" font-size="8" fill="#6b7280">Passport.xyz API → Humanity Score</text>
  <text x="60" y="248" font-size="8" fill="#6b7280" dy="10">Score &lt; 20 → Auto-reject (zero cost)</text>

  <!-- Arrow: FAIL -->
  <rect x="290" y="210" width="70" height="20" rx="4" fill="rgba(239,68,68,0.15)"/>
  <text x="325" y="224" text-anchor="middle" font-size="9" font-weight="600" fill="#ef4444">FAIL →</text>
  <!-- PASS arrow down -->
  <line x1="210" y1="258" x2="210" y2="280" stroke="#4b5563" stroke-width="1.5" marker-end="url(#arrowGray)"/>
  <text x="225" y="273" font-size="8" font-weight="600" fill="#4ade80">PASS</text>

  <!-- ═══════════════════════════════════════════════ -->
  <!-- LAYER 2: PROPOSAL INPUT (right of step 1) -->
  <!-- ═══════════════════════════════════════════════ -->
  <rect x="420" y="178" width="340" height="80" rx="12" fill="rgba(139,92,246,0.06)" stroke="rgba(139,92,246,0.3)" stroke-width="1" filter="url(#shadow)"/>
  <text x="440" y="200" font-size="11" font-weight="700" fill="#a78bfa">PROPOSAL INPUT</text>
  <text x="440" y="218" font-size="8" fill="#6b7280">Text description + optional voice pitch</text>
  <rect x="435" y="228" width="100" height="18" rx="4" fill="rgba(139,92,246,0.15)"/>
  <text x="485" y="241" text-anchor="middle" font-size="8" font-weight="600" fill="#a78bfa">ElevenLabs STT</text>
  <text x="440" y="250" font-size="8" fill="#6b7280" dx="110">Voice → Text transcription</text>

  <!-- ═══════════════════════════════════════════════ -->
  <!-- PARTNER DB + FOUNDER HISTORY (right) -->
  <!-- ═══════════════════════════════════════════════ -->
  <rect x="800" y="178" width="360" height="80" rx="12" fill="rgba(245,158,11,0.06)" stroke="rgba(245,158,11,0.3)" stroke-width="1" filter="url(#shadow)"/>
  <text x="820" y="200" font-size="11" font-weight="700" fill="#fbbf24">PARTNER DB + HISTORY</text>
  <text x="820" y="218" font-size="8" fill="#6b7280">10 orgs: YC, Solana Foundation, a16z, Gitcoin...</text>
  <text x="820" y="232" font-size="8" fill="#6b7280">Cross-reference: prior proposals, past decisions</text>
  <text x="820" y="246" font-size="8" fill="#6b7280">+8 per approval, -12 per rejection to reputation</text>

  <!-- ═══════════════════════════════════════════════ -->
  <!-- LAYER 3: MULTI-AGENT RESEARCH -->
  <!-- ═══════════════════════════════════════════════ -->
  <rect x="40" y="283" width="1120" height="145" rx="12" fill="rgba(6,182,212,0.06)" stroke="rgba(6,182,212,0.3)" stroke-width="1" filter="url(#shadow)"/>
  <text x="60" y="305" font-size="11" font-weight="700" fill="#22d3ee">STEP 2: MULTI-AGENT DUE DILIGENCE</text>
  <rect x="320" y="293" width="90" height="18" rx="4" fill="rgba(6,182,212,0.2)"/>
  <text x="365" y="306" text-anchor="middle" font-size="9" font-weight="700" fill="#06b6d4">Unbrowse</text>
  <text x="420" y="306" font-size="9" fill="#6b7280">Browser Agent on port 6969 — 6 platforms in parallel</text>

  <!-- 5 Agent boxes -->
  <g transform="translate(55,315)">
    <rect width="190" height="100" rx="8" fill="rgba(59,130,246,0.08)" stroke="rgba(59,130,246,0.3)"/>
    <text x="15" y="20" font-size="10" font-weight="700" fill="#60a5fa">🔍 Scout</text>
    <text x="15" y="35" font-size="8" fill="#9ca3af">Social Intelligence Agent</text>
    <line x1="10" y1="42" x2="180" y2="42" stroke="rgba(255,255,255,0.05)"/>
    <text x="15" y="56" font-size="8" fill="#6b7280">→ X/Twitter profile + followers</text>
    <text x="15" y="68" font-size="8" fill="#6b7280">→ GitHub repos + stars + langs</text>
    <text x="15" y="80" font-size="8" fill="#6b7280">→ Bio, contributions, engagement</text>
    <rect x="100" y="86" width="80" height="12" rx="3" fill="rgba(6,182,212,0.15)"/>
    <text x="140" y="95" text-anchor="middle" font-size="7" fill="#22d3ee">via Unbrowse</text>
  </g>

  <g transform="translate(260,315)">
    <rect width="190" height="100" rx="8" fill="rgba(249,115,22,0.08)" stroke="rgba(249,115,22,0.3)"/>
    <text x="15" y="20" font-size="10" font-weight="700" fill="#fb923c">⛏️ Digger</text>
    <text x="15" y="35" font-size="8" fill="#9ca3af">Community Researcher</text>
    <line x1="10" y1="42" x2="180" y2="42" stroke="rgba(255,255,255,0.05)"/>
    <text x="15" y="56" font-size="8" fill="#6b7280">→ Reddit mentions + karma</text>
    <text x="15" y="68" font-size="8" fill="#6b7280">→ HackerNews posts + points</text>
    <text x="15" y="80" font-size="8" fill="#6b7280">→ Community sentiment analysis</text>
    <rect x="100" y="86" width="80" height="12" rx="3" fill="rgba(6,182,212,0.15)"/>
    <text x="140" y="95" text-anchor="middle" font-size="7" fill="#22d3ee">via Unbrowse</text>
  </g>

  <g transform="translate(465,315)">
    <rect width="190" height="100" rx="8" fill="rgba(34,197,94,0.08)" stroke="rgba(34,197,94,0.3)"/>
    <text x="15" y="20" font-size="10" font-weight="700" fill="#4ade80">✅ Verifier</text>
    <text x="15" y="35" font-size="8" fill="#9ca3af">Credential Checker</text>
    <line x1="10" y1="42" x2="180" y2="42" stroke="rgba(255,255,255,0.05)"/>
    <text x="15" y="56" font-size="8" fill="#6b7280">→ Google search results</text>
    <text x="15" y="68" font-size="8" fill="#6b7280">→ Y Combinator company lookup</text>
    <text x="15" y="80" font-size="8" fill="#6b7280">→ News articles + press coverage</text>
    <rect x="100" y="86" width="80" height="12" rx="3" fill="rgba(6,182,212,0.15)"/>
    <text x="140" y="95" text-anchor="middle" font-size="7" fill="#22d3ee">via Unbrowse</text>
  </g>

  <g transform="translate(670,315)">
    <rect width="190" height="100" rx="8" fill="rgba(168,85,247,0.08)" stroke="rgba(168,85,247,0.3)"/>
    <text x="15" y="20" font-size="10" font-weight="700" fill="#c084fc">📊 Analyst</text>
    <text x="15" y="35" font-size="8" fill="#9ca3af">Data Synthesizer</text>
    <line x1="10" y1="42" x2="180" y2="42" stroke="rgba(255,255,255,0.05)"/>
    <text x="15" y="56" font-size="8" fill="#6b7280">→ Cross-reference all platforms</text>
    <text x="15" y="68" font-size="8" fill="#6b7280">→ Check partner database</text>
    <text x="15" y="80" font-size="8" fill="#6b7280">→ Calculate reputation score</text>
    <rect x="100" y="86" width="80" height="12" rx="3" fill="rgba(245,158,11,0.15)"/>
    <text x="140" y="95" text-anchor="middle" font-size="7" fill="#fbbf24">10 Partners</text>
  </g>

  <g transform="translate(875,315)">
    <rect width="190" height="100" rx="8" fill="rgba(245,158,11,0.08)" stroke="rgba(245,158,11,0.3)"/>
    <text x="15" y="20" font-size="10" font-weight="700" fill="#fbbf24">⚖️ Judge</text>
    <text x="15" y="35" font-size="8" fill="#9ca3af">Final Arbiter</text>
    <line x1="10" y1="42" x2="180" y2="42" stroke="rgba(255,255,255,0.05)"/>
    <text x="15" y="56" font-size="8" fill="#6b7280">→ Tally agent votes (N-of-4)</text>
    <text x="15" y="68" font-size="8" fill="#6b7280">→ Render verdict + rationale</text>
    <text x="15" y="80" font-size="8" fill="#6b7280">→ Narrate via ElevenLabs TTS</text>
    <rect x="100" y="86" width="80" height="12" rx="3" fill="rgba(139,92,246,0.15)"/>
    <text x="140" y="95" text-anchor="middle" font-size="7" fill="#a78bfa">ElevenLabs</text>
  </g>

  <!-- Arrow down from agents -->
  <line x1="600" y1="428" x2="600" y2="448" stroke="#4b5563" stroke-width="1.5" marker-end="url(#arrowGray)"/>

  <!-- ═══════════════════════════════════════════════ -->
  <!-- LAYER 4: GPT-4o EVALUATION + REPUTATION -->
  <!-- ═══════════════════════════════════════════════ -->
  <rect x="40" y="452" width="545" height="90" rx="12" fill="rgba(168,85,247,0.06)" stroke="rgba(168,85,247,0.3)" stroke-width="1" filter="url(#shadow)"/>
  <text x="60" y="474" font-size="11" font-weight="700" fill="#c084fc">STEP 3: AI EVALUATION</text>
  <rect x="215" y="462" width="70" height="18" rx="4" fill="rgba(168,85,247,0.2)"/>
  <text x="250" y="475" text-anchor="middle" font-size="9" font-weight="700" fill="#a78bfa">GPT-4o</text>

  <text x="60" y="496" font-size="8" fill="#9ca3af">5 Criteria: Impact (25%) • Feasibility (20%) • Credibility (25%) • Budget (15%) • Mission (15%)</text>
  <text x="60" y="510" font-size="8" fill="#9ca3af">+ GPT-4o generated multi-agent debate script</text>
  <text x="60" y="524" font-size="8" fill="#9ca3af">+ Risk assessment: budget / team / timeline / market</text>
  <text x="60" y="538" font-size="8" fill="#9ca3af">+ Reputation-aware: feeds platform data + partner matches into prompt</text>

  <!-- Reputation Score box -->
  <rect x="615" y="452" width="545" height="90" rx="12" fill="rgba(6,182,212,0.06)" stroke="rgba(6,182,212,0.3)" stroke-width="1" filter="url(#shadow)"/>
  <text x="635" y="474" font-size="11" font-weight="700" fill="#22d3ee">REPUTATION SCORE</text>
  <text x="635" y="496" font-size="8" fill="#9ca3af">Platform Presence (20%) • Sentiment (15%) • Verification (25%)</text>
  <text x="635" y="510" font-size="8" fill="#9ca3af">Community Engagement (15%) • Track Record (25%)</text>
  <text x="635" y="524" font-size="8" fill="#9ca3af">+ Partner boost (YC, Solana Foundation, a16z, Gitcoin...)</text>
  <text x="635" y="538" font-size="8" fill="#9ca3af">+ Historical: +8 per past approval, -12 per past rejection</text>

  <!-- Arrow down -->
  <line x1="600" y1="542" x2="600" y2="565" stroke="#4b5563" stroke-width="1.5" marker-end="url(#arrowGray)"/>

  <!-- ═══════════════════════════════════════════════ -->
  <!-- LAYER 5: DECISION ENGINE -->
  <!-- ═══════════════════════════════════════════════ -->
  <rect x="200" y="568" width="800" height="55" rx="12" fill="rgba(255,255,255,0.03)" stroke="rgba(255,255,255,0.15)" stroke-width="1" filter="url(#shadow)"/>
  <text x="220" y="590" font-size="11" font-weight="700" fill="#e5e7eb">STEP 4: DECISION ENGINE</text>

  <!-- Three outcome boxes -->
  <rect x="450" y="578" width="120" height="35" rx="6" fill="rgba(34,197,94,0.1)" stroke="rgba(34,197,94,0.3)"/>
  <text x="510" y="595" text-anchor="middle" font-size="9" font-weight="700" fill="#4ade80">≥ 80%</text>
  <text x="510" y="607" text-anchor="middle" font-size="7" fill="#6b7280">AUTO-APPROVE</text>

  <rect x="590" y="578" width="120" height="35" rx="6" fill="rgba(245,158,11,0.1)" stroke="rgba(245,158,11,0.3)"/>
  <text x="650" y="595" text-anchor="middle" font-size="9" font-weight="700" fill="#fbbf24">50-79%</text>
  <text x="650" y="607" text-anchor="middle" font-size="7" fill="#6b7280">FLAG REVIEW</text>

  <rect x="730" y="578" width="120" height="35" rx="6" fill="rgba(239,68,68,0.1)" stroke="rgba(239,68,68,0.3)"/>
  <text x="790" y="595" text-anchor="middle" font-size="9" font-weight="700" fill="#ef4444">&lt; 50%</text>
  <text x="790" y="607" text-anchor="middle" font-size="7" fill="#6b7280">AUTO-REJECT</text>

  <text x="870" y="600" font-size="8" fill="#6b7280">Funding = Amount × Score%</text>

  <!-- Arrow down -->
  <line x1="600" y1="623" x2="600" y2="648" stroke="#4b5563" stroke-width="1.5" marker-end="url(#arrowGray)"/>

  <!-- ═══════════════════════════════════════════════ -->
  <!-- LAYER 6: ON-CHAIN ACTIONS (Solana) -->
  <!-- ═══════════════════════════════════════════════ -->
  <rect x="40" y="652" width="1120" height="100" rx="12" fill="rgba(16,185,129,0.06)" stroke="rgba(16,185,129,0.3)" stroke-width="1" filter="url(#shadow)"/>
  <text x="60" y="674" font-size="11" font-weight="700" fill="#34d399">STEP 5: ON-CHAIN ACTIONS</text>
  <text x="260" y="674" font-size="10" fill="#6b7280">Solana Devnet — All transactions verifiable on Explorer</text>

  <!-- 4 on-chain boxes -->
  <g transform="translate(55,685)">
    <rect width="240" height="55" rx="8" fill="rgba(16,185,129,0.08)" stroke="rgba(16,185,129,0.2)"/>
    <rect x="10" y="8" width="90" height="16" rx="4" fill="rgba(16,185,129,0.2)"/>
    <text x="55" y="20" text-anchor="middle" font-size="8" font-weight="700" fill="#34d399">Metaplex Core</text>
    <text x="15" y="35" font-size="8" fill="#9ca3af">Mint decision as immutable NFT</text>
    <text x="15" y="47" font-size="8" fill="#9ca3af">Score + rationale + wallet in attributes</text>
  </g>

  <g transform="translate(310,685)">
    <rect width="240" height="55" rx="8" fill="rgba(16,185,129,0.08)" stroke="rgba(16,185,129,0.2)"/>
    <rect x="10" y="8" width="100" height="16" rx="4" fill="rgba(16,185,129,0.2)"/>
    <text x="60" y="20" text-anchor="middle" font-size="8" font-weight="700" fill="#34d399">Agent Registry</text>
    <text x="15" y="35" font-size="8" fill="#9ca3af">Register agent identity on-chain</text>
    <text x="15" y="47" font-size="8" fill="#9ca3af">Metaplex Agent Registry protocol</text>
  </g>

  <g transform="translate(565,685)">
    <rect width="240" height="55" rx="8" fill="rgba(6,182,212,0.08)" stroke="rgba(6,182,212,0.2)"/>
    <rect x="10" y="8" width="80" height="16" rx="4" fill="rgba(6,182,212,0.2)"/>
    <text x="50" y="20" text-anchor="middle" font-size="8" font-weight="700" fill="#22d3ee">SPL Token</text>
    <text x="15" y="35" font-size="8" fill="#9ca3af">USDC transfer to applicant wallet</text>
    <text x="15" y="47" font-size="8" fill="#9ca3af">Milestone tranche 1/3 (30%)</text>
  </g>

  <g transform="translate(820,685)">
    <rect width="240" height="55" rx="8" fill="rgba(245,158,11,0.08)" stroke="rgba(245,158,11,0.2)"/>
    <rect x="10" y="8" width="70" height="16" rx="4" fill="rgba(245,158,11,0.2)"/>
    <text x="45" y="20" text-anchor="middle" font-size="8" font-weight="700" fill="#fbbf24">Meteora</text>
    <text x="15" y="35" font-size="8" fill="#9ca3af">Auto-rebalance vault (62/38)</text>
    <text x="15" y="47" font-size="8" fill="#9ca3af">Yield optimization ~4.5% APY</text>
  </g>

  <!-- ═══════════════════════════════════════════════ -->
  <!-- LAYER 7: PERSISTENCE -->
  <!-- ═══════════════════════════════════════════════ -->
  <rect x="40" y="770" width="545" height="55" rx="12" fill="rgba(59,130,246,0.06)" stroke="rgba(59,130,246,0.3)" stroke-width="1" filter="url(#shadow)"/>
  <text x="60" y="792" font-size="11" font-weight="700" fill="#60a5fa">POSTGRESQL</text>
  <text x="170" y="792" font-size="9" fill="#6b7280">13 tables • Write-through cache • Founder profiles persist</text>
  <text x="60" y="810" font-size="8" fill="#6b7280">proposals • founders • audit_records • treasury_transactions • fund_pools • milestones • agent_events</text>

  <!-- Treasury Banking box -->
  <rect x="615" y="770" width="545" height="55" rx="12" fill="rgba(245,158,11,0.06)" stroke="rgba(245,158,11,0.3)" stroke-width="1" filter="url(#shadow)"/>
  <text x="635" y="792" font-size="11" font-weight="700" fill="#fbbf24">TREASURY BANKING</text>
  <text x="800" y="792" font-size="9" fill="#6b7280">Transaction ledger • 4 fund pools • Balance sheet</text>
  <text x="635" y="810" font-size="8" fill="#6b7280">Multi-sig approvals (>$15K) • Treasury alerts • Milestone-based funding (30/30/40 tranches)</text>

  <!-- Arrows from on-chain to persistence -->
  <line x1="310" y1="752" x2="310" y2="770" stroke="#4b5563" stroke-width="1" marker-end="url(#arrowGray)"/>
  <line x1="890" y1="752" x2="890" y2="770" stroke="#4b5563" stroke-width="1" marker-end="url(#arrowGray)"/>

  <!-- ═══════════════════════════════════════════════ -->
  <!-- BOTTOM: SPONSOR LOGOS BAR -->
  <!-- ═══════════════════════════════════════════════ -->
  <rect x="40" y="845" width="1120" height="40" rx="10" fill="rgba(255,255,255,0.02)" stroke="rgba(255,255,255,0.08)"/>
  <text x="600" y="862" text-anchor="middle" font-size="9" fill="#4b5563">POWERED BY</text>

  <g transform="translate(120,855)">
    <rect x="0" y="0" width="80" height="20" rx="10" fill="rgba(6,182,212,0.15)"/>
    <text x="40" y="14" text-anchor="middle" font-size="8" font-weight="600" fill="#22d3ee">Unbrowse</text>
  </g>
  <g transform="translate(220,855)">
    <rect x="0" y="0" width="90" height="20" rx="10" fill="rgba(139,92,246,0.15)"/>
    <text x="45" y="14" text-anchor="middle" font-size="8" font-weight="600" fill="#a78bfa">ElevenLabs</text>
  </g>
  <g transform="translate(330,855)">
    <rect x="0" y="0" width="70" height="20" rx="10" fill="rgba(16,185,129,0.15)"/>
    <text x="35" y="14" text-anchor="middle" font-size="8" font-weight="600" fill="#34d399">Solana</text>
  </g>
  <g transform="translate(420,855)">
    <rect x="0" y="0" width="85" height="20" rx="10" fill="rgba(16,185,129,0.15)"/>
    <text x="42" y="14" text-anchor="middle" font-size="8" font-weight="600" fill="#34d399">Metaplex</text>
  </g>
  <g transform="translate(525,855)">
    <rect x="0" y="0" width="75" height="20" rx="10" fill="rgba(245,158,11,0.15)"/>
    <text x="37" y="14" text-anchor="middle" font-size="8" font-weight="600" fill="#fbbf24">Meteora</text>
  </g>
  <g transform="translate(620,855)">
    <rect x="0" y="0" width="90" height="20" rx="10" fill="rgba(34,197,94,0.15)"/>
    <text x="45" y="14" text-anchor="middle" font-size="8" font-weight="600" fill="#4ade80">human.tech</text>
  </g>
  <g transform="translate(730,855)">
    <rect x="0" y="0" width="70" height="20" rx="10" fill="rgba(168,85,247,0.15)"/>
    <text x="35" y="14" text-anchor="middle" font-size="8" font-weight="600" fill="#c084fc">GPT-4o</text>
  </g>
  <g transform="translate(820,855)">
    <rect x="0" y="0" width="90" height="20" rx="10" fill="rgba(59,130,246,0.15)"/>
    <text x="45" y="14" text-anchor="middle" font-size="8" font-weight="600" fill="#60a5fa">PostgreSQL</text>
  </g>
  <g transform="translate(930,855)">
    <rect x="0" y="0" width="80" height="20" rx="10" fill="rgba(239,68,68,0.15)"/>
    <text x="40" y="14" text-anchor="middle" font-size="8" font-weight="600" fill="#f87171">Docker</text>
  </g>
</svg>
